<?xml version="1.0" encoding="utf-8"?>
<!-- Generator: Adobe Illustrator 21.0.2, SVG Export Plug-In . SVG Version: 6.00 Build 0)  -->
<svg version="1.1" id="Layer_1" xmlns="http://www.w3.org/2000/svg" xmlns:xlink="http://www.w3.org/1999/xlink" x="0px" y="0px"
	 viewBox="0 0 309.4 249.7" style="enable-background:new 0 0 309.4 249.7;" xml:space="preserve">
<style type="text/css">
	.st0{fill:none;stroke:#1D1D1B;}
	.st1{fill:#FFFFFF;}
</style>
<title>AtlasLogo</title>
<g id="Layer_12">
	
		<image style="overflow:visible;opacity:0.5;" width="287" height="236" xlink:href="8A5C08B9.png"  transform="matrix(1 0 0 1 10.8526 7.2)">
	</image>
	<g>
		
			<image style="overflow:visible;opacity:0.5;" width="262" height="213" xlink:href="8A5C08BB.png"  transform="matrix(1 0 0 1 23.8526 18.2)">
		</image>
		<g>
			<g>
				<path d="M266.3,118.8l-0.6,0.5l0,0L266.3,118.8c-2.7-3.4-5.4-6.7-7.4-9.9l13.3-1.9l0,0c0.2,0,0.4-0.2,0.5-0.3l5.7-8.6
					c0.1-0.1,0.1-0.2,0.1-0.3c0.1-0.5,0-1-0.2-1.4c-0.5-0.6-1.2-0.9-2-0.9c-1.1-0.2-1.8-0.3-2.1-1.2c-2.2-6.2-6.5-10.6-12.1-12.2
					c-2.3-0.7-7.1-1.2-11.3,3.7l-1.2,0.8c-21.2-52.4-80.8-77.8-133.2-56.7c-25.8,10.5-46.3,31-56.7,56.8l-6.5-4.8l0,0
					c-0.2-0.1-0.4-0.2-0.7-0.1L43.7,84c-0.3,0.1-0.5,0.3-0.6,0.6c-6.9,23.3-13.2,49.4-13,82.3c-0.2,0.2-0.4,0.3-0.7,0.4
					c-0.5,0.3-1.5,0.7-1.5,1.9c0,0.3,0.2,0.6,0.5,0.7l10.1,5c0.2,0.1,0.6,0.1,0.8,0l0,0l16.1-10.6c1.5,4.3,3,8.4,4.7,12.2
					c-0.1,0.1-0.2,0.2-0.3,0.3c-0.5,0.3-1.4,1.1-0.9,2.2c0.1,0.2,0.3,0.4,0.6,0.4l10,2c31.2,47.1,94.6,60,141.7,28.8
					c17.1-11.3,30.4-27.5,38.2-46.5l2.9,1c2.5,3.8,6.7,6,11.2,6c4.3,0,10.5-2.1,15.6-12C286.6,144.2,275.8,130.8,266.3,118.8z
					 M70.3,96.5c-0.3,0.6-0.6,1.2-1,1.8c-0.7,0.9-1.2,2-1.3,3.1c1.3,24.9,6.6,46.5,16.3,66.2l-13.8,11.7c-0.5-1.2-1.3-2.9-2.2-5.2
					l-1.2-2.8c-8.7-20.6-13.7-47.2-15.4-81.3c0.2-1.2,0.5-2.3,0.9-3.4c0.3-0.9,0.6-1.8,0.8-2.5L70.3,96.5z M39.9,141
					c1-10,2.7-19.9,4.9-29.6c1,10.2,2.4,19.7,4.2,28.4L39.9,141z M49.2,141.5c0.3,1.4,0.6,2.8,0.9,4.1l-9.4-3L49.2,141.5z
					 M39.1,170.5c-0.3-1.4-0.5-3.1-0.5-3.6c0-5.3,0.1-10.5,0.5-16l13.5,4.4c0.7,2.5,1.5,5,2.3,7.4l-15.3,10.1
					C39.4,172.1,39.3,171.3,39.1,170.5L39.1,170.5z M85.8,168.5l0.2-1c-3.8-7.6-6.9-15.4-9.3-23.5v-0.4l-0.1-0.1
					c-1.8-6-3.2-12.1-4.3-18.2h11.1c0.1,2.3,0.3,4.6,0.4,6.9c0.2,3.3,0.5,6.6,0.8,9.8c1.2,12.6,3.4,25.1,6.6,37.3
					c0.1,0.2-0.5,1-0.8,1.3c-0.6,0.8-1.3,1.7-1.1,2.8c0.1,0.4,0.4,0.6,0.8,0.6l0,0l6.8-0.2c1.9,3.8,4,7.4,6.3,10.9
					c-10.4-4.2-20.3-9.7-29.3-16.3L85.8,168.5z M238.9,158.2c-0.6-0.2-1.1-0.4-1.5-0.6c0.1-2.6,0.1-5.2,0.1-7.7l4.3,1.5
					c0.1,0.2,0.2,0.4,0.3,0.5c0.7,0.6,1.9,0.6,3.1,0.5c0.7-0.1,1.4-0.1,2.1,0.1c0.7,3.4,1.9,6.8,3.5,9.9L238.9,158.2z M236.4,97
					l12.1-7.8c-0.5,0.9-0.9,1.8-1.3,2.8c-4.3,10.9,4.2,21.7,12.5,32.1c8.7,10.9,16.9,21.1,11.8,30.7c-1.6,3.2-5,8.3-9.3,7.3
					c-4.5-1.1-9.3-12.1-9.4-19.3c0-0.3-0.2-0.6-0.5-0.7c-0.1,0-0.2-0.1-0.2-0.1l0,0l-2.1-0.3c-0.8-3.9-2.8-8.7-7.1-14.3
					c-2.9-3.1-5.6-6.4-8-9.9c-0.9-5.7-2.1-11.2-3.4-16.6C232.7,99.2,234.4,97.9,236.4,97z M204.1,86l6.6-14.5c0.2,0.6,0.5,1.3,0.8,2
					c0.6,1.3,1,2.6,1.2,3.9c-0.2,34.2-5.6,68.2-15.9,100.9c-0.4,0.8-0.9,1.6-1.4,2.2c-0.3,0.4-0.6,0.8-0.8,1.1l-4-9.1
					C200,142.8,204.3,115.4,204.1,86L204.1,86z M215.5,137.6l1.2-0.3l8.7,2l-10.6,2.4C215,140.4,215.2,139,215.5,137.6L215.5,137.6z
					 M216.8,135.7h-0.3c-0.1-0.7-0.2-1.5-0.3-2.2c2.2-12.8,3.7-25.8,4.5-38.8c4,14.2,6.5,28.8,7.4,43.6L216.8,135.7z M243.8,148.6
					l-1.5,1.2l-4.8-1.7c0-2.2-0.1-4.3-0.2-6.4l12.8,1.7L243.8,148.6z M237.1,140.1c-0.3-5-0.7-9.9-1.2-14.7h2.9
					c0.9,1,1.8,2.1,2.8,3.1c3.9,5.1,5.9,9.4,6.7,13L237.1,140.1z M235.8,124.4c-0.1-1.1-0.3-2.2-0.4-3.2c0.8,1.1,1.7,2.1,2.6,3.2
					H235.8z M228.5,147.2c0.3,8.7,0.2,17.4-0.4,26.1c-0.3,0.8-0.8,1.5-1.4,2.1c-0.4,0.5-0.9,1.1-1.2,1.7l-9.3-9.3
					c0.4-0.5,0.7-1,0.9-1.6c1.1-3,1.3-9,0.8-16.6L228.5,147.2z M255,95.2c1-2.6,2.7-5.5,4.7-4.9c3,0.9,8.4,7.6,10.6,12.3
					c0.3,1,0.5,2,0.7,3.1l-13.1,1.9C255.1,102.9,253.6,98.7,255,95.2L255,95.2z M211.1,68.3c-0.2-0.1-0.5,0-0.7,0.2
					c-0.1,0.1-0.2,0.2-0.2,0.3l0,0l-7.7,16.7l-0.1,0.3c0.1,12.9-0.7,25.8-2.4,38.5h-44.8V44.7c16.9,0.2,33.7,3.5,49.4,9.8
					c3.1,4.5,5.8,9.2,8.1,14.1L211.1,68.3z M155.2,43.7V25.6c4.5,0,8.9,0.4,13.4,1c13.4,3.9,25.5,13.3,35,26.5
					C188.1,47.1,171.8,43.9,155.2,43.7z M154.2,25.6v18.2h-0.4c-16.2,0-32.3,2.9-47.4,8.6c9.4-12.9,21.3-22.1,34.5-25.9
					C145.3,25.9,149.7,25.6,154.2,25.6z M153.8,44.7h0.4v79.6H141c-0.6-25.1,1.1-49.4,5.2-50.5l0.6-1l-2.8-9.2l0,0
					c0-0.1-0.1-0.2-0.2-0.3c-0.2-0.2-0.4-0.3-0.7-0.3L129,64.6c-0.4,0-0.6,0.3-0.7,0.7c-0.2,1.2,0.8,2.4,1.8,3.5
					c0.6,0.7,1.5,1.7,1.4,2.1c-3,17.6-4.3,35.5-3.9,53.4h-24.4c-0.6-12-0.4-24,0.7-35.9c7.4-1.8,14.1-2.6,15.1-1.7l0,0l1.4-0.6v-7.5
					l-0.2-0.5l-7.9-9.6l0,0c-0.2-0.2-0.4-0.3-0.6-0.3h-0.8c-4.8,0-9.6,0.3-14.4,0.9c2.5-5.4,5.5-10.5,8.9-15.4
					C120.8,47.7,137.3,44.7,153.8,44.7z M142.3,173.5c-7.4-32.4-8.2-67.5-2.3-104.3c0.1-0.6,1-1.4,1.7-2.2c0.4-0.4,0.8-0.8,1.2-1.2
					l2.1,6.8c-8.1,6.1-7,71.5-1.1,96.5L142.3,173.5z M179.1,175.3c-0.3,0.6-0.9,1.9-1.2,1.9c-11.6,1.6-23.3,1.5-34.9-0.3
					c0-0.1-0.1-0.3-0.1-0.4l2.3-6.4c10.9,1.9,22.1,1.9,33,0l2.2,3C179.9,173.7,179.5,174.5,179.1,175.3L179.1,175.3z M145.4,168.4
					c-2.5-10.7-3.9-27-4.3-43.1h13.1v44.2C151.3,169.3,148.4,168.9,145.4,168.4L145.4,168.4z M118.7,84.3l-6.3-5.8v-7.1l6.3,7.6
					V84.3z M103.6,86.8l-10.5-8.7c4.8-0.8,9.6-1.3,14.4-1.4c0.3,0,1,0.8,1.4,1.2c0.6,0.8,1.4,1.4,2.3,1.7l5.6,5.2
					C113.6,84.7,108.6,85.6,103.6,86.8z M102.7,181.3c-0.4-0.4-0.8-0.7-1.3-1c-0.6-0.4-1.5-1.1-1.6-1.4c-7.3-28-10-61.5-7.7-99.5
					l10,8.3c-2.5,29.6-0.4,56.8,6.3,83.2L102.7,181.3z M73.2,85.1c0.3-0.6,0.6-1.2,0.9-1.7c3.1-1.2,6.3-2.3,9.6-3.1
					c-0.2,3.1-0.3,6.3-0.4,9.3l-10.8-3.2C72.8,86,73,85.6,73.2,85.1z M98.1,183.8l3.4-0.1c0.2,0,0.3,0,0.5,0c0.3,0,0.6,0,0.9-0.1
					l0,0h0.1h0.1c0.2,0,0.3-0.1,0.4-0.3c0,0,0,0,0-0.1l0,0l6.5-11.7l0.1-0.6c-3.8-14.9-6.1-30.2-6.9-45.6h24.4
					c0.5,18.8,3.1,37.4,7.8,55.6l-3.4,1.6c-0.3,0.2-0.5,0.5-0.5,0.9c0.1,0.4,0.4,0.7,0.7,0.7l6.7,0.6c5.1,0.8,10.1,1.4,15.3,1.7
					v18.5c-16.9-0.1-33.5-3.4-49.2-9.5C102.4,191.7,100.1,187.9,98.1,183.8z M154.2,206v18.2c-4.5,0-8.9-0.4-13.4-1
					c-13.4-3.9-25.4-13.2-34.8-26.3C121.4,202.8,137.7,205.8,154.2,206L154.2,206z M155.2,224.1v-18.2c16.4,0,32.6-2.9,47.9-8.8
					c-9.4,12.9-21.3,22.1-34.6,26C164.1,223.8,159.7,224.1,155.2,224.1L155.2,224.1z M155.2,205v-18.5c2.3,0.1,4.5,0.2,6.7,0.2
					c7.4,0,14.7-0.7,22-2c0.2,0,0.4-0.2,0.5-0.3c0.1-0.2,0.2-0.4,0.1-0.6l-1.9-9.7c0-0.3-0.1-0.6-0.2-0.8v-0.1l0,0c0,0,0,0,0-0.1
					l-0.1-0.1c0,0,0-0.1-0.1-0.1l0,0l-3.1-4.2l-0.8-0.3c-7.7,1.4-15.5,1.8-23.2,1.2v-44.2h44.8c-2.3,15.9-6,31.6-10.9,46.9v0.6
					l4.7,11l0,0c0,0.1,0.1,0.1,0.1,0.2c0.2,0.2,0.4,0.3,0.6,0.3h0.2l14.2-2.9c0.3-0.1,0.5-0.3,0.6-0.6c0.3-0.9-0.6-1.9-1.8-3.1
					c-0.5-0.5-1-1-1.4-1.5c2.6-8.2,4.8-16.6,6.5-25l0.1-0.6l3.5-0.8c0.4,7.2,0.2,12.9-0.8,15.7c-0.4,1-0.7,1.3-0.9,1.3l-0.2,1.3
					l2.5,2.5c-3.1,8.8-7.4,17.2-12.7,24.9C188.6,201.9,172,205,155.2,205L155.2,205z M217.7,171.6l7.5,7.5l0,0l0,0
					c0.2,0.2,0.4,0.2,0.7,0.2l10.9-2.1c-9.5,7.4-19.9,13.4-31.1,17.9C210.7,187.8,214.7,179.9,217.7,171.6z M235.7,95.6
					c-1.8,0.8-3.4,2-4.8,3.4c-2.6-9.7-6-19.1-10.2-28.2c-0.1-0.2-0.3-0.4-0.6-0.5l-6.2-1.4c-2.2-4.8-4.8-9.4-7.7-13.8
					c12.7,5.1,24.5,12.2,35,21c2.2,3.9,4.1,7.9,5.8,12.1L235.7,95.6z M239.7,73.6c-10.5-8.3-22.1-15.1-34.5-20
					c-8.4-12.1-19-21.2-30.8-26.1C201.7,33.1,225.3,49.8,239.7,73.6z M135,27.5c-11.6,4.8-21.9,13.6-30.3,25.4
					c-12.4,4.8-24.1,11.5-34.5,19.8C84.7,49.4,108.1,33,135,27.5z M68.6,75.3c10.5-8.8,22.3-15.9,35.1-21c-3.2,4.7-6,9.7-8.4,14.9
					c-9.2,1.2-18.3,3.7-26.9,7.3c-0.4,0.2-0.6,0.6-0.5,1l2.4,9.5c0.1,0.2,0.2,0.4,0.4,0.5h0.1l0,0l12.3,3.6
					c-0.4,11.6-0.4,22.7,0.1,33.1h-11c-1.3-7.6-2.2-15.3-2.5-23.1c0.2-0.8,0.5-1.5,1-2.1c0.7-0.9,1.2-2,1.3-3.1l-0.3-0.6l-9.5-6.8
					C64,84,66.2,79.6,68.6,75.3z M72.2,180l1-0.9c9.6,7,20.1,12.8,31.2,17.1c8.4,12,18.9,21.1,30.6,25.9
					C109.3,216.9,86.7,201.8,72.2,180z M174.4,222.2c11.6-4.8,22-13.7,30.4-25.6c12.6-4.9,24.3-11.8,34.8-20.3
					C225.2,200,201.6,216.6,174.4,222.2L174.4,222.2z M241.2,173.6c-0.7,0.6-1.6,1.4-2.7,2.3c-0.2-1.1-0.4-2.2-0.8-3.2
					c-0.3-0.9-0.6-1.9-0.7-2.8c0.2-3.6,0.4-7.1,0.4-10.5l1,0.4l0,0l8.1,2.9C244.9,166.4,243.2,170.1,241.2,173.6L241.2,173.6z"/>
			</g>
			<g>
				<path class="st0" d="M266.3,118.8l-0.6,0.5l0,0L266.3,118.8c-2.7-3.4-5.4-6.7-7.4-9.9l13.3-1.9l0,0c0.2,0,0.4-0.2,0.5-0.3
					l5.7-8.6c0.1-0.1,0.1-0.2,0.1-0.3c0.1-0.5,0-1-0.2-1.4c-0.5-0.6-1.2-0.9-2-0.9c-1.1-0.2-1.8-0.3-2.1-1.2
					c-2.2-6.2-6.5-10.6-12.1-12.2c-2.3-0.7-7.1-1.2-11.3,3.7l-1.2,0.8c-21.2-52.4-80.8-77.8-133.2-56.7
					c-25.8,10.5-46.3,31-56.7,56.8l-6.5-4.8l0,0c-0.2-0.1-0.4-0.2-0.7-0.1L43.7,84c-0.3,0.1-0.5,0.3-0.6,0.6
					c-6.9,23.3-13.2,49.4-13,82.3c-0.2,0.2-0.4,0.3-0.7,0.4c-0.5,0.3-1.5,0.7-1.5,1.9c0,0.3,0.2,0.6,0.5,0.7l10.1,5
					c0.2,0.1,0.6,0.1,0.8,0l0,0l16.1-10.6c1.5,4.3,3,8.4,4.7,12.2c-0.1,0.1-0.2,0.2-0.3,0.3c-0.5,0.3-1.4,1.1-0.9,2.2
					c0.1,0.2,0.3,0.4,0.6,0.4l10,2c31.2,47.1,94.6,60,141.7,28.8c17.1-11.3,30.4-27.5,38.2-46.5l2.9,1c2.5,3.8,6.7,6,11.2,6
					c4.3,0,10.5-2.1,15.6-12C286.6,144.2,275.8,130.8,266.3,118.8z M70.3,96.5c-0.3,0.6-0.6,1.2-1,1.8c-0.7,0.9-1.2,2-1.3,3.1
					c1.3,24.9,6.6,46.5,16.3,66.2l-13.8,11.7c-0.5-1.2-1.3-2.9-2.2-5.2l-1.2-2.8c-8.7-20.6-13.7-47.2-15.4-81.3
					c0.2-1.2,0.5-2.3,0.9-3.4c0.3-0.9,0.6-1.8,0.8-2.5L70.3,96.5z M39.9,141c1-10,2.7-19.9,4.9-29.6c1,10.2,2.4,19.7,4.2,28.4
					L39.9,141z M49.2,141.5c0.3,1.4,0.6,2.8,0.9,4.1l-9.4-3L49.2,141.5z M39.1,170.5c-0.3-1.4-0.5-3.1-0.5-3.6
					c0-5.3,0.1-10.5,0.5-16l13.5,4.4c0.7,2.5,1.5,5,2.3,7.4l-15.3,10.1C39.4,172.1,39.3,171.3,39.1,170.5L39.1,170.5z M85.8,168.5
					l0.2-1c-3.8-7.6-6.9-15.4-9.3-23.5v-0.4l-0.1-0.1c-1.8-6-3.2-12.1-4.3-18.2h11.1c0.1,2.3,0.3,4.6,0.4,6.9
					c0.2,3.3,0.5,6.6,0.8,9.8c1.2,12.6,3.4,25.1,6.6,37.3c0.1,0.2-0.5,1-0.8,1.3c-0.6,0.8-1.3,1.7-1.1,2.8c0.1,0.4,0.4,0.6,0.8,0.6
					l0,0l6.8-0.2c1.9,3.8,4,7.4,6.3,10.9c-10.4-4.2-20.3-9.7-29.3-16.3L85.8,168.5z M238.9,158.2c-0.6-0.2-1.1-0.4-1.5-0.6
					c0.1-2.6,0.1-5.2,0.1-7.7l4.3,1.5c0.1,0.2,0.2,0.4,0.3,0.5c0.7,0.6,1.9,0.6,3.1,0.5c0.7-0.1,1.4-0.1,2.1,0.1
					c0.7,3.4,1.9,6.8,3.5,9.9L238.9,158.2z M236.4,97l12.1-7.8c-0.5,0.9-0.9,1.8-1.3,2.8c-4.3,10.9,4.2,21.7,12.5,32.1
					c8.7,10.9,16.9,21.1,11.8,30.7c-1.6,3.2-5,8.3-9.3,7.3c-4.5-1.1-9.3-12.1-9.4-19.3c0-0.3-0.2-0.6-0.5-0.7
					c-0.1,0-0.2-0.1-0.2-0.1l0,0l-2.1-0.3c-0.8-3.9-2.8-8.7-7.1-14.3c-2.9-3.1-5.6-6.4-8-9.9c-0.9-5.7-2.1-11.2-3.4-16.6
					C232.7,99.2,234.4,97.9,236.4,97z M204.1,86l6.6-14.5c0.2,0.6,0.5,1.3,0.8,2c0.6,1.3,1,2.6,1.2,3.9
					c-0.2,34.2-5.6,68.2-15.9,100.9c-0.4,0.8-0.9,1.6-1.4,2.2c-0.3,0.4-0.6,0.8-0.8,1.1l-4-9.1C200,142.8,204.3,115.4,204.1,86
					L204.1,86z M215.5,137.6l1.2-0.3l8.7,2l-10.6,2.4C215,140.4,215.2,139,215.5,137.6L215.5,137.6z M216.8,135.7h-0.3
					c-0.1-0.7-0.2-1.5-0.3-2.2c2.2-12.8,3.7-25.8,4.5-38.8c4,14.2,6.5,28.8,7.4,43.6L216.8,135.7z M243.8,148.6l-1.5,1.2l-4.8-1.7
					c0-2.2-0.1-4.3-0.2-6.4l12.8,1.7L243.8,148.6z M237.1,140.1c-0.3-5-0.7-9.9-1.2-14.7h2.9c0.9,1,1.8,2.1,2.8,3.1
					c3.9,5.1,5.9,9.4,6.7,13L237.1,140.1z M235.8,124.4c-0.1-1.1-0.3-2.2-0.4-3.2c0.8,1.1,1.7,2.1,2.6,3.2H235.8z M228.5,147.2
					c0.3,8.7,0.2,17.4-0.4,26.1c-0.3,0.8-0.8,1.5-1.4,2.1c-0.4,0.5-0.9,1.1-1.2,1.7l-9.3-9.3c0.4-0.5,0.7-1,0.9-1.6
					c1.1-3,1.3-9,0.8-16.6L228.5,147.2z M255,95.2c1-2.6,2.7-5.5,4.7-4.9c3,0.9,8.4,7.6,10.6,12.3c0.3,1,0.5,2,0.7,3.1l-13.1,1.9
					C255.1,102.9,253.6,98.7,255,95.2L255,95.2z M211.1,68.3c-0.2-0.1-0.5,0-0.7,0.2c-0.1,0.1-0.2,0.2-0.2,0.3l0,0l-7.7,16.7
					l-0.1,0.3c0.1,12.9-0.7,25.8-2.4,38.5h-44.8V44.7c16.9,0.2,33.7,3.5,49.4,9.8c3.1,4.5,5.8,9.2,8.1,14.1L211.1,68.3z M155.2,43.7
					V25.6c4.5,0,8.9,0.4,13.4,1c13.4,3.9,25.5,13.3,35,26.5C188.1,47.1,171.8,43.9,155.2,43.7z M154.2,25.6v18.2h-0.4
					c-16.2,0-32.3,2.9-47.4,8.6c9.4-12.9,21.3-22.1,34.5-25.9C145.3,25.9,149.7,25.6,154.2,25.6z M153.8,44.7h0.4v79.6H141
					c-0.6-25.1,1.1-49.4,5.2-50.5l0.6-1l-2.8-9.2l0,0c0-0.1-0.1-0.2-0.2-0.3c-0.2-0.2-0.4-0.3-0.7-0.3L129,64.6
					c-0.4,0-0.6,0.3-0.7,0.7c-0.2,1.2,0.8,2.4,1.8,3.5c0.6,0.7,1.5,1.7,1.4,2.1c-3,17.6-4.3,35.5-3.9,53.4h-24.4
					c-0.6-12-0.4-24,0.7-35.9c7.4-1.8,14.1-2.6,15.1-1.7l0,0l1.4-0.6v-7.5l-0.2-0.5l-7.9-9.6l0,0c-0.2-0.2-0.4-0.3-0.6-0.3h-0.8
					c-4.8,0-9.6,0.3-14.4,0.9c2.5-5.4,5.5-10.5,8.9-15.4C120.8,47.7,137.3,44.7,153.8,44.7z M142.3,173.5
					c-7.4-32.4-8.2-67.5-2.3-104.3c0.1-0.6,1-1.4,1.7-2.2c0.4-0.4,0.8-0.8,1.2-1.2l2.1,6.8c-8.1,6.1-7,71.5-1.1,96.5L142.3,173.5z
					 M179.1,175.3c-0.3,0.6-0.9,1.9-1.2,1.9c-11.6,1.6-23.3,1.5-34.9-0.3c0-0.1-0.1-0.3-0.1-0.4l2.3-6.4c10.9,1.9,22.1,1.9,33,0
					l2.2,3C179.9,173.7,179.5,174.5,179.1,175.3L179.1,175.3z M145.4,168.4c-2.5-10.7-3.9-27-4.3-43.1h13.1v44.2
					C151.3,169.3,148.4,168.9,145.4,168.4L145.4,168.4z M118.7,84.3l-6.3-5.8v-7.1l6.3,7.6V84.3z M103.6,86.8l-10.5-8.7
					c4.8-0.8,9.6-1.3,14.4-1.4c0.3,0,1,0.8,1.4,1.2c0.6,0.8,1.4,1.4,2.3,1.7l5.6,5.2C113.6,84.7,108.6,85.6,103.6,86.8z
					 M102.7,181.3c-0.4-0.4-0.8-0.7-1.3-1c-0.6-0.4-1.5-1.1-1.6-1.4c-7.3-28-10-61.5-7.7-99.5l10,8.3c-2.5,29.6-0.4,56.8,6.3,83.2
					L102.7,181.3z M73.2,85.1c0.3-0.6,0.6-1.2,0.9-1.7c3.1-1.2,6.3-2.3,9.6-3.1c-0.2,3.1-0.3,6.3-0.4,9.3l-10.8-3.2
					C72.8,86,73,85.6,73.2,85.1z M98.1,183.8l3.4-0.1c0.2,0,0.3,0,0.5,0c0.3,0,0.6,0,0.9-0.1l0,0h0.1h0.1c0.2,0,0.3-0.1,0.4-0.3
					c0,0,0,0,0-0.1l0,0l6.5-11.7l0.1-0.6c-3.8-14.9-6.1-30.2-6.9-45.6h24.4c0.5,18.8,3.1,37.4,7.8,55.6l-3.4,1.6
					c-0.3,0.2-0.5,0.5-0.5,0.9c0.1,0.4,0.4,0.7,0.7,0.7l6.7,0.6c5.1,0.8,10.1,1.4,15.3,1.7v18.5c-16.9-0.1-33.5-3.4-49.2-9.5
					C102.4,191.7,100.1,187.9,98.1,183.8z M154.2,206v18.2c-4.5,0-8.9-0.4-13.4-1c-13.4-3.9-25.4-13.2-34.8-26.3
					C121.4,202.8,137.7,205.8,154.2,206L154.2,206z M155.2,224.1v-18.2c16.4,0,32.6-2.9,47.9-8.8c-9.4,12.9-21.3,22.1-34.6,26
					C164.1,223.8,159.7,224.1,155.2,224.1L155.2,224.1z M155.2,205v-18.5c2.3,0.1,4.5,0.2,6.7,0.2c7.4,0,14.7-0.7,22-2
					c0.2,0,0.4-0.2,0.5-0.3c0.1-0.2,0.2-0.4,0.1-0.6l-1.9-9.7c0-0.3-0.1-0.6-0.2-0.8v-0.1l0,0c0,0,0,0,0-0.1l-0.1-0.1
					c0,0,0-0.1-0.1-0.1l0,0l-3.1-4.2l-0.8-0.3c-7.7,1.4-15.5,1.8-23.2,1.2v-44.2h44.8c-2.3,15.9-6,31.6-10.9,46.9v0.6l4.7,11l0,0
					c0,0.1,0.1,0.1,0.1,0.2c0.2,0.2,0.4,0.3,0.6,0.3h0.2l14.2-2.9c0.3-0.1,0.5-0.3,0.6-0.6c0.3-0.9-0.6-1.9-1.8-3.1
					c-0.5-0.5-1-1-1.4-1.5c2.6-8.2,4.8-16.6,6.5-25l0.1-0.6l3.5-0.8c0.4,7.2,0.2,12.9-0.8,15.7c-0.4,1-0.7,1.3-0.9,1.3l-0.2,1.3
					l2.5,2.5c-3.1,8.8-7.4,17.2-12.7,24.9C188.6,201.9,172,205,155.2,205L155.2,205z M217.7,171.6l7.5,7.5l0,0l0,0
					c0.2,0.2,0.4,0.2,0.7,0.2l10.9-2.1c-9.5,7.4-19.9,13.4-31.1,17.9C210.7,187.8,214.7,179.9,217.7,171.6z M235.7,95.6
					c-1.8,0.8-3.4,2-4.8,3.4c-2.6-9.7-6-19.1-10.2-28.2c-0.1-0.2-0.3-0.4-0.6-0.5l-6.2-1.4c-2.2-4.8-4.8-9.4-7.7-13.8
					c12.7,5.1,24.5,12.2,35,21c2.2,3.9,4.1,7.9,5.8,12.1L235.7,95.6z M239.7,73.6c-10.5-8.3-22.1-15.1-34.5-20
					c-8.4-12.1-19-21.2-30.8-26.1C201.7,33.1,225.3,49.8,239.7,73.6z M135,27.5c-11.6,4.8-21.9,13.6-30.3,25.4
					c-12.4,4.8-24.1,11.5-34.5,19.8C84.7,49.4,108.1,33,135,27.5z M68.6,75.3c10.5-8.8,22.3-15.9,35.1-21c-3.2,4.7-6,9.7-8.4,14.9
					c-9.2,1.2-18.3,3.7-26.9,7.3c-0.4,0.2-0.6,0.6-0.5,1l2.4,9.5c0.1,0.2,0.2,0.4,0.4,0.5h0.1l0,0l12.3,3.6
					c-0.4,11.6-0.4,22.7,0.1,33.1h-11c-1.3-7.6-2.2-15.3-2.5-23.1c0.2-0.8,0.5-1.5,1-2.1c0.7-0.9,1.2-2,1.3-3.1l-0.3-0.6l-9.5-6.8
					C64,84,66.2,79.6,68.6,75.3z M72.2,180l1-0.9c9.6,7,20.1,12.8,31.2,17.1c8.4,12,18.9,21.1,30.6,25.9
					C109.3,216.9,86.7,201.8,72.2,180z M174.4,222.2c11.6-4.8,22-13.7,30.4-25.6c12.6-4.9,24.3-11.8,34.8-20.3
					C225.2,200,201.6,216.6,174.4,222.2L174.4,222.2z M241.2,173.6c-0.7,0.6-1.6,1.4-2.7,2.3c-0.2-1.1-0.4-2.2-0.8-3.2
					c-0.3-0.9-0.6-1.9-0.7-2.8c0.2-3.6,0.4-7.1,0.4-10.5l1,0.4l0,0l8.1,2.9C244.9,166.4,243.2,170.1,241.2,173.6L241.2,173.6z"/>
			</g>
			<g>
				<path class="st1" d="M266.3,118.8l-0.6,0.5l0,0L266.3,118.8c-2.7-3.4-5.4-6.7-7.4-9.9l13.3-1.9l0,0c0.2,0,0.4-0.2,0.5-0.3
					l5.7-8.6c0.1-0.1,0.1-0.2,0.1-0.3c0.1-0.5,0-1-0.2-1.4c-0.5-0.6-1.2-0.9-2-0.9c-1.1-0.2-1.8-0.3-2.1-1.2
					c-2.2-6.2-6.5-10.6-12.1-12.2c-2.3-0.7-7.1-1.2-11.3,3.7l-1.2,0.8c-21.2-52.4-80.8-77.8-133.2-56.7
					c-25.8,10.5-46.3,31-56.7,56.8l-6.5-4.8l0,0c-0.2-0.1-0.4-0.2-0.7-0.1L43.7,84c-0.3,0.1-0.5,0.3-0.6,0.6
					c-6.9,23.3-13.2,49.4-13,82.3c-0.2,0.2-0.4,0.3-0.7,0.4c-0.5,0.3-1.5,0.7-1.5,1.9c0,0.3,0.2,0.6,0.5,0.7l10.1,5
					c0.2,0.1,0.6,0.1,0.8,0l0,0l16.1-10.6c1.5,4.3,3,8.4,4.7,12.2c-0.1,0.1-0.2,0.2-0.3,0.3c-0.5,0.3-1.4,1.1-0.9,2.2
					c0.1,0.2,0.3,0.4,0.6,0.4l10,2c31.2,47.1,94.6,60,141.7,28.8c17.1-11.3,30.4-27.5,38.2-46.5l2.9,1c2.5,3.8,6.7,6,11.2,6
					c4.3,0,10.5-2.1,15.6-12C286.6,144.2,275.8,130.8,266.3,118.8z M70.3,96.5c-0.3,0.6-0.6,1.2-1,1.8c-0.7,0.9-1.2,2-1.3,3.1
					c1.3,24.9,6.6,46.5,16.3,66.2l-13.8,11.7c-0.5-1.2-1.3-2.9-2.2-5.2l-1.2-2.8c-8.7-20.6-13.7-47.2-15.4-81.3
					c0.2-1.2,0.5-2.3,0.9-3.4c0.3-0.9,0.6-1.8,0.8-2.5L70.3,96.5z M39.9,141c1-10,2.7-19.9,4.9-29.6c1,10.2,2.4,19.7,4.2,28.4
					L39.9,141z M49.2,141.5c0.3,1.4,0.6,2.8,0.9,4.1l-9.4-3L49.2,141.5z M39.1,170.5c-0.3-1.4-0.5-3.1-0.5-3.6
					c0-5.3,0.1-10.5,0.5-16l13.5,4.4c0.7,2.5,1.5,5,2.3,7.4l-15.3,10.1C39.4,172.1,39.3,171.3,39.1,170.5L39.1,170.5z M85.8,168.5
					l0.2-1c-3.8-7.6-6.9-15.4-9.3-23.5v-0.4l-0.1-0.1c-1.8-6-3.2-12.1-4.3-18.2h11.1c0.1,2.3,0.3,4.6,0.4,6.9
					c0.2,3.3,0.5,6.6,0.8,9.8c1.2,12.6,3.4,25.1,6.6,37.3c0.1,0.2-0.5,1-0.8,1.3c-0.6,0.8-1.3,1.7-1.1,2.8c0.1,0.4,0.4,0.6,0.8,0.6
					l0,0l6.8-0.2c1.9,3.8,4,7.4,6.3,10.9c-10.4-4.2-20.3-9.7-29.3-16.3L85.8,168.5z M238.9,158.2c-0.6-0.2-1.1-0.4-1.5-0.6
					c0.1-2.6,0.1-5.2,0.1-7.7l4.3,1.5c0.1,0.2,0.2,0.4,0.3,0.5c0.7,0.6,1.9,0.6,3.1,0.5c0.7-0.1,1.4-0.1,2.1,0.1
					c0.7,3.4,1.9,6.8,3.5,9.9L238.9,158.2z M236.4,97l12.1-7.8c-0.5,0.9-0.9,1.8-1.3,2.8c-4.3,10.9,4.2,21.7,12.5,32.1
					c8.7,10.9,16.9,21.1,11.8,30.7c-1.6,3.2-5,8.3-9.3,7.3c-4.5-1.1-9.3-12.1-9.4-19.3c0-0.3-0.2-0.6-0.5-0.7
					c-0.1,0-0.2-0.1-0.2-0.1l0,0l-2.1-0.3c-0.8-3.9-2.8-8.7-7.1-14.3c-2.9-3.1-5.6-6.4-8-9.9c-0.9-5.7-2.1-11.2-3.4-16.6
					C232.7,99.2,234.4,97.9,236.4,97z M204.1,86l6.6-14.5c0.2,0.6,0.5,1.3,0.8,2c0.6,1.3,1,2.6,1.2,3.9
					c-0.2,34.2-5.6,68.2-15.9,100.9c-0.4,0.8-0.9,1.6-1.4,2.2c-0.3,0.4-0.6,0.8-0.8,1.1l-4-9.1C200,142.8,204.3,115.4,204.1,86
					L204.1,86z M215.5,137.6l1.2-0.3l8.7,2l-10.6,2.4C215,140.4,215.2,139,215.5,137.6L215.5,137.6z M216.8,135.7h-0.3
					c-0.1-0.7-0.2-1.5-0.3-2.2c2.2-12.8,3.7-25.8,4.5-38.8c4,14.2,6.5,28.8,7.4,43.6L216.8,135.7z M243.8,148.6l-1.5,1.2l-4.8-1.7
					c0-2.2-0.1-4.3-0.2-6.4l12.8,1.7L243.8,148.6z M237.1,140.1c-0.3-5-0.7-9.9-1.2-14.7h2.9c0.9,1,1.8,2.1,2.8,3.1
					c3.9,5.1,5.9,9.4,6.7,13L237.1,140.1z M235.8,124.4c-0.1-1.1-0.3-2.2-0.4-3.2c0.8,1.1,1.7,2.1,2.6,3.2H235.8z M228.5,147.2
					c0.3,8.7,0.2,17.4-0.4,26.1c-0.3,0.8-0.8,1.5-1.4,2.1c-0.4,0.5-0.9,1.1-1.2,1.7l-9.3-9.3c0.4-0.5,0.7-1,0.9-1.6
					c1.1-3,1.3-9,0.8-16.6L228.5,147.2z M255,95.2c1-2.6,2.7-5.5,4.7-4.9c3,0.9,8.4,7.6,10.6,12.3c0.3,1,0.5,2,0.7,3.1l-13.1,1.9
					C255.1,102.9,253.6,98.7,255,95.2L255,95.2z M211.1,68.3c-0.2-0.1-0.5,0-0.7,0.2c-0.1,0.1-0.2,0.2-0.2,0.3l0,0l-7.7,16.7
					l-0.1,0.3c0.1,12.9-0.7,25.8-2.4,38.5h-44.8V44.7c16.9,0.2,33.7,3.5,49.4,9.8c3.1,4.5,5.8,9.2,8.1,14.1L211.1,68.3z M155.2,43.7
					V25.6c4.5,0,8.9,0.4,13.4,1c13.4,3.9,25.5,13.3,35,26.5C188.1,47.1,171.8,43.9,155.2,43.7z M154.2,25.6v18.2h-0.4
					c-16.2,0-32.3,2.9-47.4,8.6c9.4-12.9,21.3-22.1,34.5-25.9C145.3,25.9,149.7,25.6,154.2,25.6z M153.8,44.7h0.4v79.6H141
					c-0.6-25.1,1.1-49.4,5.2-50.5l0.6-1l-2.8-9.2l0,0c0-0.1-0.1-0.2-0.2-0.3c-0.2-0.2-0.4-0.3-0.7-0.3L129,64.6
					c-0.4,0-0.6,0.3-0.7,0.7c-0.2,1.2,0.8,2.4,1.8,3.5c0.6,0.7,1.5,1.7,1.4,2.1c-3,17.6-4.3,35.5-3.9,53.4h-24.4
					c-0.6-12-0.4-24,0.7-35.9c7.4-1.8,14.1-2.6,15.1-1.7l0,0l1.4-0.6v-7.5l-0.2-0.5l-7.9-9.6l0,0c-0.2-0.2-0.4-0.3-0.6-0.3h-0.8
					c-4.8,0-9.6,0.3-14.4,0.9c2.5-5.4,5.5-10.5,8.9-15.4C120.8,47.7,137.3,44.7,153.8,44.7z M142.3,173.5
					c-7.4-32.4-8.2-67.5-2.3-104.3c0.1-0.6,1-1.4,1.7-2.2c0.4-0.4,0.8-0.8,1.2-1.2l2.1,6.8c-8.1,6.1-7,71.5-1.1,96.5L142.3,173.5z
					 M179.1,175.3c-0.3,0.6-0.9,1.9-1.2,1.9c-11.6,1.6-23.3,1.5-34.9-0.3c0-0.1-0.1-0.3-0.1-0.4l2.3-6.4c10.9,1.9,22.1,1.9,33,0
					l2.2,3C179.9,173.7,179.5,174.5,179.1,175.3L179.1,175.3z M145.4,168.4c-2.5-10.7-3.9-27-4.3-43.1h13.1v44.2
					C151.3,169.3,148.4,168.9,145.4,168.4L145.4,168.4z M118.7,84.3l-6.3-5.8v-7.1l6.3,7.6V84.3z M103.6,86.8l-10.5-8.7
					c4.8-0.8,9.6-1.3,14.4-1.4c0.3,0,1,0.8,1.4,1.2c0.6,0.8,1.4,1.4,2.3,1.7l5.6,5.2C113.6,84.7,108.6,85.6,103.6,86.8z
					 M102.7,181.3c-0.4-0.4-0.8-0.7-1.3-1c-0.6-0.4-1.5-1.1-1.6-1.4c-7.3-28-10-61.5-7.7-99.5l10,8.3c-2.5,29.6-0.4,56.8,6.3,83.2
					L102.7,181.3z M73.2,85.1c0.3-0.6,0.6-1.2,0.9-1.7c3.1-1.2,6.3-2.3,9.6-3.1c-0.2,3.1-0.3,6.3-0.4,9.3l-10.8-3.2
					C72.8,86,73,85.6,73.2,85.1z M98.1,183.8l3.4-0.1c0.2,0,0.3,0,0.5,0c0.3,0,0.6,0,0.9-0.1l0,0h0.1h0.1c0.2,0,0.3-0.1,0.4-0.3
					c0,0,0,0,0-0.1l0,0l6.5-11.7l0.1-0.6c-3.8-14.9-6.1-30.2-6.9-45.6h24.4c0.5,18.8,3.1,37.4,7.8,55.6l-3.4,1.6
					c-0.3,0.2-0.5,0.5-0.5,0.9c0.1,0.4,0.4,0.7,0.7,0.7l6.7,0.6c5.1,0.8,10.1,1.4,15.3,1.7v18.5c-16.9-0.1-33.5-3.4-49.2-9.5
					C102.4,191.7,100.1,187.9,98.1,183.8z M154.2,206v18.2c-4.5,0-8.9-0.4-13.4-1c-13.4-3.9-25.4-13.2-34.8-26.3
					C121.4,202.8,137.7,205.8,154.2,206L154.2,206z M155.2,224.1v-18.2c16.4,0,32.6-2.9,47.9-8.8c-9.4,12.9-21.3,22.1-34.6,26
					C164.1,223.8,159.7,224.1,155.2,224.1L155.2,224.1z M155.2,205v-18.5c2.3,0.1,4.5,0.2,6.7,0.2c7.4,0,14.7-0.7,22-2
					c0.2,0,0.4-0.2,0.5-0.3c0.1-0.2,0.2-0.4,0.1-0.6l-1.9-9.7c0-0.3-0.1-0.6-0.2-0.8v-0.1l0,0c0,0,0,0,0-0.1l-0.1-0.1
					c0,0,0-0.1-0.1-0.1l0,0l-3.1-4.2l-0.8-0.3c-7.7,1.4-15.5,1.8-23.2,1.2v-44.2h44.8c-2.3,15.9-6,31.6-10.9,46.9v0.6l4.7,11l0,0
					c0,0.1,0.1,0.1,0.1,0.2c0.2,0.2,0.4,0.3,0.6,0.3h0.2l14.2-2.9c0.3-0.1,0.5-0.3,0.6-0.6c0.3-0.9-0.6-1.9-1.8-3.1
					c-0.5-0.5-1-1-1.4-1.5c2.6-8.2,4.8-16.6,6.5-25l0.1-0.6l3.5-0.8c0.4,7.2,0.2,12.9-0.8,15.7c-0.4,1-0.7,1.3-0.9,1.3l-0.2,1.3
					l2.5,2.5c-3.1,8.8-7.4,17.2-12.7,24.9C188.6,201.9,172,205,155.2,205L155.2,205z M217.7,171.6l7.5,7.5l0,0l0,0
					c0.2,0.2,0.4,0.2,0.7,0.2l10.9-2.1c-9.5,7.4-19.9,13.4-31.1,17.9C210.7,187.8,214.7,179.9,217.7,171.6z M235.7,95.6
					c-1.8,0.8-3.4,2-4.8,3.4c-2.6-9.7-6-19.1-10.2-28.2c-0.1-0.2-0.3-0.4-0.6-0.5l-6.2-1.4c-2.2-4.8-4.8-9.4-7.7-13.8
					c12.7,5.1,24.5,12.2,35,21c2.2,3.9,4.1,7.9,5.8,12.1L235.7,95.6z M239.7,73.6c-10.5-8.3-22.1-15.1-34.5-20
					c-8.4-12.1-19-21.2-30.8-26.1C201.7,33.1,225.3,49.8,239.7,73.6z M135,27.5c-11.6,4.8-21.9,13.6-30.3,25.4
					c-12.4,4.8-24.1,11.5-34.5,19.8C84.7,49.4,108.1,33,135,27.5z M68.6,75.3c10.5-8.8,22.3-15.9,35.1-21c-3.2,4.7-6,9.7-8.4,14.9
					c-9.2,1.2-18.3,3.7-26.9,7.3c-0.4,0.2-0.6,0.6-0.5,1l2.4,9.5c0.1,0.2,0.2,0.4,0.4,0.5h0.1l0,0l12.3,3.6
					c-0.4,11.6-0.4,22.7,0.1,33.1h-11c-1.3-7.6-2.2-15.3-2.5-23.1c0.2-0.8,0.5-1.5,1-2.1c0.7-0.9,1.2-2,1.3-3.1l-0.3-0.6l-9.5-6.8
					C64,84,66.2,79.6,68.6,75.3z M72.2,180l1-0.9c9.6,7,20.1,12.8,31.2,17.1c8.4,12,18.9,21.1,30.6,25.9
					C109.3,216.9,86.7,201.8,72.2,180z M174.4,222.2c11.6-4.8,22-13.7,30.4-25.6c12.6-4.9,24.3-11.8,34.8-20.3
					C225.2,200,201.6,216.6,174.4,222.2L174.4,222.2z M241.2,173.6c-0.7,0.6-1.6,1.4-2.7,2.3c-0.2-1.1-0.4-2.2-0.8-3.2
					c-0.3-0.9-0.6-1.9-0.7-2.8c0.2-3.6,0.4-7.1,0.4-10.5l1,0.4l0,0l8.1,2.9C244.9,166.4,243.2,170.1,241.2,173.6L241.2,173.6z"/>
			</g>
		</g>
	</g>
</g>
</svg>
