<?xml version="1.0" encoding="utf-8"?>
<!-- Generator: Adobe Illustrator 21.0.2, SVG Export Plug-In . SVG Version: 6.00 Build 0)  -->
<svg version="1.1" id="Layer_1" xmlns="http://www.w3.org/2000/svg" xmlns:xlink="http://www.w3.org/1999/xlink" x="0px" y="0px"
	 viewBox="0 0 253.7 204.7" style="enable-background:new 0 0 253.7 204.7;" xml:space="preserve">
<title>AtlasLogo</title>
<g id="Layer_12">
	<g>
		<path d="M238.4,96.3l-0.6,0.5l0,0L238.4,96.3c-2.7-3.4-5.4-6.7-7.4-9.9l13.3-1.9l0,0c0.2,0,0.4-0.2,0.5-0.3l5.7-8.6
			c0.1-0.1,0.1-0.2,0.1-0.3c0.1-0.5,0-1-0.2-1.4c-0.5-0.6-1.2-0.9-2-0.9c-1.1-0.2-1.8-0.3-2.1-1.2c-2.2-6.2-6.5-10.6-12.1-12.2
			c-2.3-0.7-7.1-1.2-11.3,3.7l-1.2,0.8C200.5,11.7,140.9-13.7,88.5,7.4c-25.8,10.5-46.3,31-56.7,56.8l-6.5-4.8l0,0
			c-0.2-0.1-0.4-0.2-0.7-0.1l-8.8,2.2c-0.3,0.1-0.5,0.3-0.6,0.6C8.3,85.4,2,111.5,2.2,144.4c-0.2,0.2-0.4,0.3-0.7,0.4
			C1,145.1,0,145.5,0,146.7c0,0.3,0.2,0.6,0.5,0.7l10.1,5c0.2,0.1,0.6,0.1,0.8,0l0,0l16.1-10.6c1.5,4.3,3,8.4,4.7,12.2
			c-0.1,0.1-0.2,0.2-0.3,0.3c-0.5,0.3-1.4,1.1-0.9,2.2c0.1,0.2,0.3,0.4,0.6,0.4l10,2c31.2,47.1,94.6,60,141.7,28.8
			c17.1-11.3,30.4-27.5,38.2-46.5l2.9,1c2.5,3.8,6.7,6,11.2,6c4.3,0,10.5-2.1,15.6-12C258.7,121.7,247.9,108.3,238.4,96.3z M42.4,74
			c-0.3,0.6-0.6,1.2-1,1.8c-0.7,0.9-1.2,2-1.3,3.1c1.3,24.9,6.6,46.5,16.3,66.2l-13.8,11.7c-0.5-1.2-1.3-2.9-2.2-5.2l-1.2-2.8
			c-8.7-20.6-13.7-47.2-15.4-81.3c0.2-1.2,0.5-2.3,0.9-3.4c0.3-0.9,0.6-1.8,0.8-2.5L42.4,74z M12,118.5c1-10,2.7-19.9,4.9-29.6
			c1,10.2,2.4,19.7,4.2,28.4L12,118.5z M21.3,119c0.3,1.4,0.6,2.8,0.9,4.1l-9.4-3L21.3,119z M11.2,148c-0.3-1.4-0.5-3.1-0.5-3.6
			c0-5.3,0.1-10.5,0.5-16l13.5,4.4c0.7,2.5,1.5,5,2.3,7.4l-15.3,10.1C11.5,149.6,11.4,148.8,11.2,148L11.2,148z M57.9,146l0.2-1
			c-3.8-7.6-6.9-15.4-9.3-23.5v-0.4l-0.1-0.1c-1.8-6-3.2-12.1-4.3-18.2h11.1c0.1,2.3,0.3,4.6,0.4,6.9c0.2,3.3,0.5,6.6,0.8,9.8
			c1.2,12.6,3.4,25.1,6.6,37.3c0.1,0.2-0.5,1-0.8,1.3c-0.6,0.8-1.3,1.7-1.1,2.8c0.1,0.4,0.4,0.6,0.8,0.6l0,0l6.8-0.2
			c1.9,3.8,4,7.4,6.3,10.9C64.9,168,55,162.5,46,155.9L57.9,146z M211,135.7c-0.6-0.2-1.1-0.4-1.5-0.6c0.1-2.6,0.1-5.2,0.1-7.7
			l4.3,1.5c0.1,0.2,0.2,0.4,0.3,0.5c0.7,0.6,1.9,0.6,3.1,0.5c0.7-0.1,1.4-0.1,2.1,0.1c0.7,3.4,1.9,6.8,3.5,9.9L211,135.7z
			 M208.5,74.5l12.1-7.8c-0.5,0.9-0.9,1.8-1.3,2.8c-4.3,10.9,4.2,21.7,12.5,32.1c8.7,10.9,16.9,21.1,11.8,30.7
			c-1.6,3.2-5,8.3-9.3,7.3c-4.5-1.1-9.3-12.1-9.4-19.3c0-0.3-0.2-0.6-0.5-0.7c-0.1,0-0.2-0.1-0.2-0.1l0,0l-2.1-0.3
			c-0.8-3.9-2.8-8.7-7.1-14.3c-2.9-3.1-5.6-6.4-8-9.9c-0.9-5.7-2.1-11.2-3.4-16.6C204.8,76.7,206.5,75.4,208.5,74.5z M176.2,63.5
			l6.6-14.5c0.2,0.6,0.5,1.3,0.8,2c0.6,1.3,1,2.6,1.2,3.9c-0.2,34.2-5.6,68.2-15.9,100.9c-0.4,0.8-0.9,1.6-1.4,2.2
			c-0.3,0.4-0.6,0.8-0.8,1.1l-4-9.1C172.1,120.3,176.4,92.9,176.2,63.5L176.2,63.5z M187.6,115.1l1.2-0.3l8.7,2l-10.6,2.4
			C187.1,117.9,187.3,116.5,187.6,115.1L187.6,115.1z M188.9,113.2h-0.3c-0.1-0.7-0.2-1.5-0.3-2.2c2.2-12.8,3.7-25.8,4.5-38.8
			c4,14.2,6.5,28.8,7.4,43.6L188.9,113.2z M215.9,126.1l-1.5,1.2l-4.8-1.7c0-2.2-0.1-4.3-0.2-6.4l12.8,1.7L215.9,126.1z
			 M209.2,117.6c-0.3-5-0.7-9.9-1.2-14.7h2.9c0.9,1,1.8,2.1,2.8,3.1c3.9,5.1,5.9,9.4,6.7,13L209.2,117.6z M207.9,101.9
			c-0.1-1.1-0.3-2.2-0.4-3.2c0.8,1.1,1.7,2.1,2.6,3.2H207.9z M200.6,124.7c0.3,8.7,0.2,17.4-0.4,26.1c-0.3,0.8-0.8,1.5-1.4,2.1
			c-0.4,0.5-0.9,1.1-1.2,1.7l-9.3-9.3c0.4-0.5,0.7-1,0.9-1.6c1.1-3,1.3-9,0.8-16.6L200.6,124.7z M227.1,72.7c1-2.6,2.7-5.5,4.7-4.9
			c3,0.9,8.4,7.6,10.6,12.3c0.3,1,0.5,2,0.7,3.1L230,85.1C227.2,80.4,225.7,76.2,227.1,72.7L227.1,72.7z M183.2,45.8
			c-0.2-0.1-0.5,0-0.7,0.2c-0.1,0.1-0.2,0.2-0.2,0.3l0,0L174.6,63l-0.1,0.3c0.1,12.9-0.7,25.8-2.4,38.5h-44.8V22.2
			c16.9,0.2,33.7,3.5,49.4,9.8c3.1,4.5,5.8,9.2,8.1,14.1L183.2,45.8z M127.3,21.2V3.1c4.5,0,8.9,0.4,13.4,1
			c13.4,3.9,25.5,13.3,35,26.5C160.2,24.6,143.9,21.4,127.3,21.2z M126.3,3.1v18.2h-0.4c-16.2,0-32.3,2.9-47.4,8.6
			C87.9,17,99.8,7.8,113,4C117.4,3.4,121.8,3.1,126.3,3.1z M125.9,22.2h0.4v79.6h-13.2c-0.6-25.1,1.1-49.4,5.2-50.5l0.6-1l-2.8-9.2
			l0,0c0-0.1-0.1-0.2-0.2-0.3c-0.2-0.2-0.4-0.3-0.7-0.3l-14.1,1.6c-0.4,0-0.6,0.3-0.7,0.7c-0.2,1.2,0.8,2.4,1.8,3.5
			c0.6,0.7,1.5,1.7,1.4,2.1c-3,17.6-4.3,35.5-3.9,53.4H75.3c-0.6-12-0.4-24,0.7-35.9c7.4-1.8,14.1-2.6,15.1-1.7l0,0l1.4-0.6v-7.5
			l-0.2-0.5L84.4,46l0,0c-0.2-0.2-0.4-0.3-0.6-0.3H83c-4.8,0-9.6,0.3-14.4,0.9c2.5-5.4,5.5-10.5,8.9-15.4
			C92.9,25.2,109.4,22.2,125.9,22.2z M114.4,151c-7.4-32.4-8.2-67.5-2.3-104.3c0.1-0.6,1-1.4,1.7-2.2c0.4-0.4,0.8-0.8,1.2-1.2
			l2.1,6.8c-8.1,6.1-7,71.5-1.1,96.5L114.4,151z M151.2,152.8c-0.3,0.6-0.9,1.9-1.2,1.9c-11.6,1.6-23.3,1.5-34.9-0.3
			c0-0.1-0.1-0.3-0.1-0.4l2.3-6.4c10.9,1.9,22.1,1.9,33,0l2.2,3C152,151.2,151.6,152,151.2,152.8L151.2,152.8z M117.5,145.9
			c-2.5-10.7-3.9-27-4.3-43.1h13.1V147C123.4,146.8,120.5,146.4,117.5,145.9L117.5,145.9z M90.8,61.8L84.5,56v-7.1l6.3,7.6V61.8z
			 M75.7,64.3l-10.5-8.7c4.8-0.8,9.6-1.3,14.4-1.4c0.3,0,1,0.8,1.4,1.2c0.6,0.8,1.4,1.4,2.3,1.7l5.6,5.2
			C85.7,62.2,80.7,63.1,75.7,64.3z M74.8,158.8c-0.4-0.4-0.8-0.7-1.3-1c-0.6-0.4-1.5-1.1-1.6-1.4c-7.3-28-10-61.5-7.7-99.5l10,8.3
			c-2.5,29.6-0.4,56.8,6.3,83.2L74.8,158.8z M45.3,62.6c0.3-0.6,0.6-1.2,0.9-1.7c3.1-1.2,6.3-2.3,9.6-3.1c-0.2,3.1-0.3,6.3-0.4,9.3
			l-10.8-3.2C44.9,63.5,45.1,63.1,45.3,62.6z M70.2,161.3l3.4-0.1c0.2,0,0.3,0,0.5,0c0.3,0,0.6,0,0.9-0.1l0,0h0.1h0.1
			c0.2,0,0.3-0.1,0.4-0.3c0,0,0,0,0-0.1l0,0l6.5-11.7l0.1-0.6c-3.8-14.9-6.1-30.2-6.9-45.6h24.4c0.5,18.8,3.1,37.4,7.8,55.6
			l-3.4,1.6c-0.3,0.2-0.5,0.5-0.5,0.9c0.1,0.4,0.4,0.7,0.7,0.7l6.7,0.6c5.1,0.8,10.1,1.4,15.3,1.7v18.5c-16.9-0.1-33.5-3.4-49.2-9.5
			C74.5,169.2,72.2,165.4,70.2,161.3z M126.3,183.5v18.2c-4.5,0-8.9-0.4-13.4-1c-13.4-3.9-25.4-13.2-34.8-26.3
			C93.5,180.3,109.8,183.3,126.3,183.5L126.3,183.5z M127.3,201.6v-18.2c16.4,0,32.6-2.9,47.9-8.8c-9.4,12.9-21.3,22.1-34.6,26
			C136.2,201.3,131.8,201.6,127.3,201.6L127.3,201.6z M127.3,182.5V164c2.3,0.1,4.5,0.2,6.7,0.2c7.4,0,14.7-0.7,22-2
			c0.2,0,0.4-0.2,0.5-0.3c0.1-0.2,0.2-0.4,0.1-0.6l-1.9-9.7c0-0.3-0.1-0.6-0.2-0.8v-0.1l0,0c0,0,0,0,0-0.1l-0.1-0.1
			c0,0,0-0.1-0.1-0.1l0,0l-3.1-4.2l-0.8-0.3c-7.7,1.4-15.5,1.8-23.2,1.2v-44.2H172c-2.3,15.9-6,31.6-10.9,46.9v0.6l4.7,11l0,0
			c0,0.1,0.1,0.1,0.1,0.2c0.2,0.2,0.4,0.3,0.6,0.3h0.2l14.2-2.9c0.3-0.1,0.5-0.3,0.6-0.6c0.3-0.9-0.6-1.9-1.8-3.1
			c-0.5-0.5-1-1-1.4-1.5c2.6-8.2,4.8-16.6,6.5-25l0.1-0.6l3.5-0.8c0.4,7.2,0.2,12.9-0.8,15.7c-0.4,1-0.7,1.3-0.9,1.3l-0.2,1.3
			l2.5,2.5c-3.1,8.8-7.4,17.2-12.7,24.9C160.7,179.4,144.1,182.5,127.3,182.5L127.3,182.5z M189.8,149.1l7.5,7.5l0,0l0,0
			c0.2,0.2,0.4,0.2,0.7,0.2l10.9-2.1c-9.5,7.4-19.9,13.4-31.1,17.9C182.8,165.3,186.8,157.4,189.8,149.1z M207.8,73.1
			c-1.8,0.8-3.4,2-4.8,3.4c-2.6-9.7-6-19.1-10.2-28.2c-0.1-0.2-0.3-0.4-0.6-0.5l-6.2-1.4c-2.2-4.8-4.8-9.4-7.7-13.8
			c12.7,5.1,24.5,12.2,35,21c2.2,3.9,4.1,7.9,5.8,12.1L207.8,73.1z M211.8,51.1c-10.5-8.3-22.1-15.1-34.5-20
			C168.9,19,158.3,9.9,146.5,5C173.8,10.6,197.4,27.3,211.8,51.1z M107.1,5C95.5,9.8,85.2,18.6,76.8,30.4
			c-12.4,4.8-24.1,11.5-34.5,19.8C56.8,26.9,80.2,10.5,107.1,5z M40.7,52.8C51.2,44,63,36.9,75.8,31.8c-3.2,4.7-6,9.7-8.4,14.9
			c-9.2,1.2-18.3,3.7-26.9,7.3c-0.4,0.2-0.6,0.6-0.5,1l2.4,9.5c0.1,0.2,0.2,0.4,0.4,0.5h0.1l0,0l12.3,3.6
			c-0.4,11.6-0.4,22.7,0.1,33.1h-11c-1.3-7.6-2.2-15.3-2.5-23.1c0.2-0.8,0.5-1.5,1-2.1c0.7-0.9,1.2-2,1.3-3.1l-0.3-0.6L34.3,66
			C36.1,61.5,38.3,57.1,40.7,52.8z M44.3,157.5l1-0.9c9.6,7,20.1,12.8,31.2,17.1c8.4,12,18.9,21.1,30.6,25.9
			C81.4,194.4,58.8,179.3,44.3,157.5z M146.5,199.7c11.6-4.8,22-13.7,30.4-25.6c12.6-4.9,24.3-11.8,34.8-20.3
			C197.3,177.5,173.7,194.1,146.5,199.7L146.5,199.7z M213.3,151.1c-0.7,0.6-1.6,1.4-2.7,2.3c-0.2-1.1-0.4-2.2-0.8-3.2
			c-0.3-0.9-0.6-1.9-0.7-2.8c0.2-3.6,0.4-7.1,0.4-10.5l1,0.4l0,0l8.1,2.9C217,143.9,215.3,147.6,213.3,151.1L213.3,151.1z"/>
	</g>
	<g>
		<path d="M238.4,96.3l-0.6,0.5l0,0L238.4,96.3c-2.7-3.4-5.4-6.7-7.4-9.9l13.3-1.9l0,0c0.2,0,0.4-0.2,0.5-0.3l5.7-8.6
			c0.1-0.1,0.1-0.2,0.1-0.3c0.1-0.5,0-1-0.2-1.4c-0.5-0.6-1.2-0.9-2-0.9c-1.1-0.2-1.8-0.3-2.1-1.2c-2.2-6.2-6.5-10.6-12.1-12.2
			c-2.3-0.7-7.1-1.2-11.3,3.7l-1.2,0.8C200.5,11.7,140.9-13.7,88.5,7.4c-25.8,10.5-46.3,31-56.7,56.8l-6.5-4.8l0,0
			c-0.2-0.1-0.4-0.2-0.7-0.1l-8.8,2.2c-0.3,0.1-0.5,0.3-0.6,0.6C8.3,85.4,2,111.5,2.2,144.4c-0.2,0.2-0.4,0.3-0.7,0.4
			C1,145.1,0,145.5,0,146.7c0,0.3,0.2,0.6,0.5,0.7l10.1,5c0.2,0.1,0.6,0.1,0.8,0l0,0l16.1-10.6c1.5,4.3,3,8.4,4.7,12.2
			c-0.1,0.1-0.2,0.2-0.3,0.3c-0.5,0.3-1.4,1.1-0.9,2.2c0.1,0.2,0.3,0.4,0.6,0.4l10,2c31.2,47.1,94.6,60,141.7,28.8
			c17.1-11.3,30.4-27.5,38.2-46.5l2.9,1c2.5,3.8,6.7,6,11.2,6c4.3,0,10.5-2.1,15.6-12C258.7,121.7,247.9,108.3,238.4,96.3z M42.4,74
			c-0.3,0.6-0.6,1.2-1,1.8c-0.7,0.9-1.2,2-1.3,3.1c1.3,24.9,6.6,46.5,16.3,66.2l-13.8,11.7c-0.5-1.2-1.3-2.9-2.2-5.2l-1.2-2.8
			c-8.7-20.6-13.7-47.2-15.4-81.3c0.2-1.2,0.5-2.3,0.9-3.4c0.3-0.9,0.6-1.8,0.8-2.5L42.4,74z M12,118.5c1-10,2.7-19.9,4.9-29.6
			c1,10.2,2.4,19.7,4.2,28.4L12,118.5z M21.3,119c0.3,1.4,0.6,2.8,0.9,4.1l-9.4-3L21.3,119z M11.2,148c-0.3-1.4-0.5-3.1-0.5-3.6
			c0-5.3,0.1-10.5,0.5-16l13.5,4.4c0.7,2.5,1.5,5,2.3,7.4l-15.3,10.1C11.5,149.6,11.4,148.8,11.2,148L11.2,148z M57.9,146l0.2-1
			c-3.8-7.6-6.9-15.4-9.3-23.5v-0.4l-0.1-0.1c-1.8-6-3.2-12.1-4.3-18.2h11.1c0.1,2.3,0.3,4.6,0.4,6.9c0.2,3.3,0.5,6.6,0.8,9.8
			c1.2,12.6,3.4,25.1,6.6,37.3c0.1,0.2-0.5,1-0.8,1.3c-0.6,0.8-1.3,1.7-1.1,2.8c0.1,0.4,0.4,0.6,0.8,0.6l0,0l6.8-0.2
			c1.9,3.8,4,7.4,6.3,10.9C64.9,168,55,162.5,46,155.9L57.9,146z M211,135.7c-0.6-0.2-1.1-0.4-1.5-0.6c0.1-2.6,0.1-5.2,0.1-7.7
			l4.3,1.5c0.1,0.2,0.2,0.4,0.3,0.5c0.7,0.6,1.9,0.6,3.1,0.5c0.7-0.1,1.4-0.1,2.1,0.1c0.7,3.4,1.9,6.8,3.5,9.9L211,135.7z
			 M208.5,74.5l12.1-7.8c-0.5,0.9-0.9,1.8-1.3,2.8c-4.3,10.9,4.2,21.7,12.5,32.1c8.7,10.9,16.9,21.1,11.8,30.7
			c-1.6,3.2-5,8.3-9.3,7.3c-4.5-1.1-9.3-12.1-9.4-19.3c0-0.3-0.2-0.6-0.5-0.7c-0.1,0-0.2-0.1-0.2-0.1l0,0l-2.1-0.3
			c-0.8-3.9-2.8-8.7-7.1-14.3c-2.9-3.1-5.6-6.4-8-9.9c-0.9-5.7-2.1-11.2-3.4-16.6C204.8,76.7,206.5,75.4,208.5,74.5z M176.2,63.5
			l6.6-14.5c0.2,0.6,0.5,1.3,0.8,2c0.6,1.3,1,2.6,1.2,3.9c-0.2,34.2-5.6,68.2-15.9,100.9c-0.4,0.8-0.9,1.6-1.4,2.2
			c-0.3,0.4-0.6,0.8-0.8,1.1l-4-9.1C172.1,120.3,176.4,92.9,176.2,63.5L176.2,63.5z M187.6,115.1l1.2-0.3l8.7,2l-10.6,2.4
			C187.1,117.9,187.3,116.5,187.6,115.1L187.6,115.1z M188.9,113.2h-0.3c-0.1-0.7-0.2-1.5-0.3-2.2c2.2-12.8,3.7-25.8,4.5-38.8
			c4,14.2,6.5,28.8,7.4,43.6L188.9,113.2z M215.9,126.1l-1.5,1.2l-4.8-1.7c0-2.2-0.1-4.3-0.2-6.4l12.8,1.7L215.9,126.1z
			 M209.2,117.6c-0.3-5-0.7-9.9-1.2-14.7h2.9c0.9,1,1.8,2.1,2.8,3.1c3.9,5.1,5.9,9.4,6.7,13L209.2,117.6z M207.9,101.9
			c-0.1-1.1-0.3-2.2-0.4-3.2c0.8,1.1,1.7,2.1,2.6,3.2H207.9z M200.6,124.7c0.3,8.7,0.2,17.4-0.4,26.1c-0.3,0.8-0.8,1.5-1.4,2.1
			c-0.4,0.5-0.9,1.1-1.2,1.7l-9.3-9.3c0.4-0.5,0.7-1,0.9-1.6c1.1-3,1.3-9,0.8-16.6L200.6,124.7z M227.1,72.7c1-2.6,2.7-5.5,4.7-4.9
			c3,0.9,8.4,7.6,10.6,12.3c0.3,1,0.5,2,0.7,3.1L230,85.1C227.2,80.4,225.7,76.2,227.1,72.7L227.1,72.7z M183.2,45.8
			c-0.2-0.1-0.5,0-0.7,0.2c-0.1,0.1-0.2,0.2-0.2,0.3l0,0L174.6,63l-0.1,0.3c0.1,12.9-0.7,25.8-2.4,38.5h-44.8V22.2
			c16.9,0.2,33.7,3.5,49.4,9.8c3.1,4.5,5.8,9.2,8.1,14.1L183.2,45.8z M127.3,21.2V3.1c4.5,0,8.9,0.4,13.4,1
			c13.4,3.9,25.5,13.3,35,26.5C160.2,24.6,143.9,21.4,127.3,21.2z M126.3,3.1v18.2h-0.4c-16.2,0-32.3,2.9-47.4,8.6
			C87.9,17,99.8,7.8,113,4C117.4,3.4,121.8,3.1,126.3,3.1z M125.9,22.2h0.4v79.6h-13.2c-0.6-25.1,1.1-49.4,5.2-50.5l0.6-1l-2.8-9.2
			l0,0c0-0.1-0.1-0.2-0.2-0.3c-0.2-0.2-0.4-0.3-0.7-0.3l-14.1,1.6c-0.4,0-0.6,0.3-0.7,0.7c-0.2,1.2,0.8,2.4,1.8,3.5
			c0.6,0.7,1.5,1.7,1.4,2.1c-3,17.6-4.3,35.5-3.9,53.4H75.3c-0.6-12-0.4-24,0.7-35.9c7.4-1.8,14.1-2.6,15.1-1.7l0,0l1.4-0.6v-7.5
			l-0.2-0.5L84.4,46l0,0c-0.2-0.2-0.4-0.3-0.6-0.3H83c-4.8,0-9.6,0.3-14.4,0.9c2.5-5.4,5.5-10.5,8.9-15.4
			C92.9,25.2,109.4,22.2,125.9,22.2z M114.4,151c-7.4-32.4-8.2-67.5-2.3-104.3c0.1-0.6,1-1.4,1.7-2.2c0.4-0.4,0.8-0.8,1.2-1.2
			l2.1,6.8c-8.1,6.1-7,71.5-1.1,96.5L114.4,151z M151.2,152.8c-0.3,0.6-0.9,1.9-1.2,1.9c-11.6,1.6-23.3,1.5-34.9-0.3
			c0-0.1-0.1-0.3-0.1-0.4l2.3-6.4c10.9,1.9,22.1,1.9,33,0l2.2,3C152,151.2,151.6,152,151.2,152.8L151.2,152.8z M117.5,145.9
			c-2.5-10.7-3.9-27-4.3-43.1h13.1V147C123.4,146.8,120.5,146.4,117.5,145.9L117.5,145.9z M90.8,61.8L84.5,56v-7.1l6.3,7.6V61.8z
			 M75.7,64.3l-10.5-8.7c4.8-0.8,9.6-1.3,14.4-1.4c0.3,0,1,0.8,1.4,1.2c0.6,0.8,1.4,1.4,2.3,1.7l5.6,5.2
			C85.7,62.2,80.7,63.1,75.7,64.3z M74.8,158.8c-0.4-0.4-0.8-0.7-1.3-1c-0.6-0.4-1.5-1.1-1.6-1.4c-7.3-28-10-61.5-7.7-99.5l10,8.3
			c-2.5,29.6-0.4,56.8,6.3,83.2L74.8,158.8z M45.3,62.6c0.3-0.6,0.6-1.2,0.9-1.7c3.1-1.2,6.3-2.3,9.6-3.1c-0.2,3.1-0.3,6.3-0.4,9.3
			l-10.8-3.2C44.9,63.5,45.1,63.1,45.3,62.6z M70.2,161.3l3.4-0.1c0.2,0,0.3,0,0.5,0c0.3,0,0.6,0,0.9-0.1l0,0h0.1h0.1
			c0.2,0,0.3-0.1,0.4-0.3c0,0,0,0,0-0.1l0,0l6.5-11.7l0.1-0.6c-3.8-14.9-6.1-30.2-6.9-45.6h24.4c0.5,18.8,3.1,37.4,7.8,55.6
			l-3.4,1.6c-0.3,0.2-0.5,0.5-0.5,0.9c0.1,0.4,0.4,0.7,0.7,0.7l6.7,0.6c5.1,0.8,10.1,1.4,15.3,1.7v18.5c-16.9-0.1-33.5-3.4-49.2-9.5
			C74.5,169.2,72.2,165.4,70.2,161.3z M126.3,183.5v18.2c-4.5,0-8.9-0.4-13.4-1c-13.4-3.9-25.4-13.2-34.8-26.3
			C93.5,180.3,109.8,183.3,126.3,183.5L126.3,183.5z M127.3,201.6v-18.2c16.4,0,32.6-2.9,47.9-8.8c-9.4,12.9-21.3,22.1-34.6,26
			C136.2,201.3,131.8,201.6,127.3,201.6L127.3,201.6z M127.3,182.5V164c2.3,0.1,4.5,0.2,6.7,0.2c7.4,0,14.7-0.7,22-2
			c0.2,0,0.4-0.2,0.5-0.3c0.1-0.2,0.2-0.4,0.1-0.6l-1.9-9.7c0-0.3-0.1-0.6-0.2-0.8v-0.1l0,0c0,0,0,0,0-0.1l-0.1-0.1
			c0,0,0-0.1-0.1-0.1l0,0l-3.1-4.2l-0.8-0.3c-7.7,1.4-15.5,1.8-23.2,1.2v-44.2H172c-2.3,15.9-6,31.6-10.9,46.9v0.6l4.7,11l0,0
			c0,0.1,0.1,0.1,0.1,0.2c0.2,0.2,0.4,0.3,0.6,0.3h0.2l14.2-2.9c0.3-0.1,0.5-0.3,0.6-0.6c0.3-0.9-0.6-1.9-1.8-3.1
			c-0.5-0.5-1-1-1.4-1.5c2.6-8.2,4.8-16.6,6.5-25l0.1-0.6l3.5-0.8c0.4,7.2,0.2,12.9-0.8,15.7c-0.4,1-0.7,1.3-0.9,1.3l-0.2,1.3
			l2.5,2.5c-3.1,8.8-7.4,17.2-12.7,24.9C160.7,179.4,144.1,182.5,127.3,182.5L127.3,182.5z M189.8,149.1l7.5,7.5l0,0l0,0
			c0.2,0.2,0.4,0.2,0.7,0.2l10.9-2.1c-9.5,7.4-19.9,13.4-31.1,17.9C182.8,165.3,186.8,157.4,189.8,149.1z M207.8,73.1
			c-1.8,0.8-3.4,2-4.8,3.4c-2.6-9.7-6-19.1-10.2-28.2c-0.1-0.2-0.3-0.4-0.6-0.5l-6.2-1.4c-2.2-4.8-4.8-9.4-7.7-13.8
			c12.7,5.1,24.5,12.2,35,21c2.2,3.9,4.1,7.9,5.8,12.1L207.8,73.1z M211.8,51.1c-10.5-8.3-22.1-15.1-34.5-20
			C168.9,19,158.3,9.9,146.5,5C173.8,10.6,197.4,27.3,211.8,51.1z M107.1,5C95.5,9.8,85.2,18.6,76.8,30.4
			c-12.4,4.8-24.1,11.5-34.5,19.8C56.8,26.9,80.2,10.5,107.1,5z M40.7,52.8C51.2,44,63,36.9,75.8,31.8c-3.2,4.7-6,9.7-8.4,14.9
			c-9.2,1.2-18.3,3.7-26.9,7.3c-0.4,0.2-0.6,0.6-0.5,1l2.4,9.5c0.1,0.2,0.2,0.4,0.4,0.5h0.1l0,0l12.3,3.6
			c-0.4,11.6-0.4,22.7,0.1,33.1h-11c-1.3-7.6-2.2-15.3-2.5-23.1c0.2-0.8,0.5-1.5,1-2.1c0.7-0.9,1.2-2,1.3-3.1l-0.3-0.6L34.3,66
			C36.1,61.5,38.3,57.1,40.7,52.8z M44.3,157.5l1-0.9c9.6,7,20.1,12.8,31.2,17.1c8.4,12,18.9,21.1,30.6,25.9
			C81.4,194.4,58.8,179.3,44.3,157.5z M146.5,199.7c11.6-4.8,22-13.7,30.4-25.6c12.6-4.9,24.3-11.8,34.8-20.3
			C197.3,177.5,173.7,194.1,146.5,199.7L146.5,199.7z M213.3,151.1c-0.7,0.6-1.6,1.4-2.7,2.3c-0.2-1.1-0.4-2.2-0.8-3.2
			c-0.3-0.9-0.6-1.9-0.7-2.8c0.2-3.6,0.4-7.1,0.4-10.5l1,0.4l0,0l8.1,2.9C217,143.9,215.3,147.6,213.3,151.1L213.3,151.1z"/>
	</g>
</g>
</svg>
